inDegrees=yes
name=ik_S53_A09_T01
DataType=double
version=3
OpenSimVersion=4.3-2021-08-27-4bc7ad9
endheader
time	pelvis_tilt	pelvis_list	pelvis_rotation	pelvis_tx	pelvis_ty	pelvis_tz	hip_flexion_r	hip_adduction_r	hip_rotation_r	knee_angle_r	knee_angle_r_beta	ankle_angle_r	subtalar_angle_r	mtp_angle_r	hip_flexion_l	hip_adduction_l	hip_rotation_l	knee_angle_l	knee_angle_l_beta	ankle_angle_l	subtalar_angle_l	mtp_angle_l	lumbar_extension	lumbar_bending	lumbar_rotation	arm_flex_r	arm_add_r	arm_rot_r	elbow_flex_r	pro_sup_r	wrist_flex_r	wrist_dev_r	arm_flex_l	arm_add_l	arm_rot_l	elbow_flex_l	pro_sup_l	wrist_flex_l	wrist_dev_l
0	0	0	0	0	0.9399999999999999	0	0	0	0	0	0	0	0	0	0	0	0	0	0	0	0	0	0	0	0	0	0	0	0	89.99999999963507	0	0	0	0	0	0	89.99999999869995	0	0
0.01666666666666667	-5.56159821232637	-3.865707359841683	29.34266734739962	0	0.9399999999999999	0	2.796997820404131	-1.324978342627695	-0.9424211500702846	4.293604902196932	0.07493754232310557	0	0	0	2.796997820404131	-1.324978342627695	-0.9424211500702846	4.293604902196932	0.07493754232310557	0	0	0	-1.548901961843913	-1.580623773026804	7.144383804044816	30.33245879911653	-4.918675665063664	-13.01202161481616	50.28672645724841	150.0275847507404	0	0	28.57263463435739	-10.21579233865782	-12.25261006293687	37.00687244536589	119.9348444834174	0	0
0.03333333333333333	-5.573592636377096	-3.859107406550124	29.31545469331625	0	0.9399999999999999	0	2.804872559271694	-1.329041038565153	-0.9451055839121469	4.304595765533523	0.07512936907596582	0	0	0	2.804872559271694	-1.329041038565153	-0.9451055839121469	4.304595765533523	0.07512936907596582	0	0	0	-1.556878617321327	-1.568624390988068	7.140059071431586	30.33583977446496	-4.883655021488738	-13.06924566462533	50.31178341800151	150.0387082767723	0	0	28.55431349209499	-10.20504703502867	-12.23777048982911	37.0221355122723	119.9226396471306	0	0
0.05	-4.445591153784004	-3.908126517669485	30.32229047622279	0	0.9399999999999999	0	35.07257935497691	-15.12873800210778	-11.12975920144805	48.68016472652263	0.849629154891025	0	0	0	35.07257935497691	-15.12873800210778	-11.12975920144805	48.68016472652263	0.849629154891025	0	0	0	-2.54342019524121	-0.9469746103246679	6.196810849971666	30.33104159317616	-4.786736713366091	-13.1230339198166	50.34540172907276	150.1465789739955	0	0	28.56116944849856	-10.2138694179224	-12.23953414001195	37.02376077090411	119.9390012856996	0	0
0.06666666666666667	-4.455910574717333	-3.89927214662515	30.27703699787098	0	0.9399999999999999	0	35.08571884049649	-15.11020506179783	-11.12681210016172	48.68592198412597	0.8497296379920886	0	0	0	35.08571884049649	-15.11020506179783	-11.12681210016172	48.68592198412597	0.8497296379920886	0	0	0	-2.552158353608039	-0.9327183534567901	6.170701496836927	30.33136444345077	-4.757775234991333	-13.11715859449916	50.35376814867409	150.1460930823537	0	0	28.55179326680955	-10.22409852855454	-12.27979763315528	37.03141270080422	119.9145966419499	0	0
0.08333333333333333	-4.454198494869394	-3.905288876907283	30.25692372706359	0	0.9399999999999999	0	35.10248331205243	-15.08569545337874	-11.12299690749966	48.69322970584082	0.8498571817968322	0	0	0	35.10248331205243	-15.08569545337874	-11.12299690749966	48.69322970584082	0.8498571817968322	0	0	0	-2.557986113395127	-0.9385848534807926	6.15519904561942	30.33474251775666	-4.742194593799885	-13.1039354468589	50.35896960145065	150.096291832969	0	0	28.54602743035899	-10.24003285678049	-12.30615856117695	37.04855857892689	119.917231304389	0	0
0.09999999999999999	-4.456208241942224	-3.906891287018676	30.24682958205954	0	0.9399999999999999	0	35.117787421949	-15.06401178456547	-11.11956163026763	48.69992954419128	0.8499741160353992	0	0	0	35.117787421949	-15.06401178456547	-11.11956163026763	48.69992954419128	0.8499741160353992	0	0	0	-2.564119078538008	-0.9392013472421564	6.14777719967528	30.31713846022126	-4.733707590900201	-13.1202882278955	50.39781931015821	150.0989907200011	0	0	28.53482858857296	-10.24122557827185	-12.30080786986275	37.07261222645828	119.9288128970961	0	0
0.1166666666666667	-4.457826773786946	-3.90786710254277	30.23162012077187	0	0.9399999999999999	0	35.13343015596084	-15.04409710561132	-11.11621125395821	48.70687370608861	0.8500953145242992	0	0	0	35.13343015596084	-15.04409710561132	-11.11621125395821	48.70687370608861	0.8500953145242992	0	0	0	-2.570151019380174	-0.9388505678413283	6.134546354873342	30.29903112246315	-4.733664374187787	-13.10579519278029	50.41779425337797	150.0993308436103	0	0	28.53928337007158	-10.25828186129956	-12.31647311731254	37.07631805974427	119.9247961801676	0	0
0.1333333333333333	-4.458526358688267	-3.905867249981731	30.20815269757408	0	0.9399999999999999	0	35.1507098918299	-15.02112746204065	-11.11244392116196	48.71450526476029	0.8502285103501791	0	0	0	35.1507098918299	-15.02112746204065	-11.11244392116196	48.71450526476029	0.8502285103501791	0	0	0	-2.574359534872966	-0.9363065529337109	6.118379305114621	30.29516430230879	-4.718413081754977	-13.06424474932451	50.41537636403933	150.0912128575296	0	0	28.52154915238723	-10.2588593272801	-12.30465944566254	37.10528541614906	119.8921415851897	0	0
0.15	-4.454092177507141	-3.918827771576796	30.20311161937004	0	0.9399999999999999	0	35.15604921397241	-15.00750211766065	-11.11081500542213	48.71660296504378	0.850265122126846	0	0	0	35.15604921397241	-15.00750211766065	-11.11081500542213	48.71660296504378	0.850265122126846	0	0	0	-2.578634836977387	-0.949170292226122	6.107728351996127	30.27428981906518	-4.710720910334095	-13.02093018550349	50.41891656045998	150.0479214246925	0	0	28.52294728918753	-10.27490875278889	-12.30692228792681	37.13152600494582	119.9043732288797	0	0
0.1666666666666667	-4.454489835731645	-3.921501962609403	30.20068662832956	0	0.9399999999999999	0	35.16385150906977	-14.99695755930248	-11.10910937177917	48.72005934138476	0.8503254472741841	0	0	0	35.16385150906977	-14.99695755930248	-11.10910937177917	48.72005934138476	0.8503254472741841	0	0	0	-2.582631359798877	-0.9508006166552008	6.096273470333492	30.26636431553422	-4.686187476999475	-12.99071617177965	50.4049715123023	150.040158299933	0	0	28.52516444327811	-10.29016579927351	-12.32152601127925	37.14004046557382	119.9062685850421	0	0
